<mxfile host="app.diagrams.net" modified="2023-12-08T06:17:26.522Z" agent="Mozilla/5.0 (Macintosh; Intel Mac OS X 10_15_7) AppleWebKit/537.36 (KHTML, like Gecko) Chrome/119.0.0.0 Safari/537.36" version="22.1.7" etag="Vf30PhV2bH6aDbyzl-nT" type="github">
  <diagram name="第 1 页" id="JO-BKYn-JYSgVeElQ2Gx">
    <mxGraphModel>
      <root>
        <mxCell id="0" />
        <mxCell id="1" parent="0" />
      </root>
    </mxGraphModel>
  </diagram>
</mxfile>
